<svg width="253" height="129" viewBox="0 0 253 129" fill="none" xmlns="http://www.w3.org/2000/svg">
<path d="M148.196 70.5095C148.196 72.5713 147.776 74.3913 146.949 75.9568C146.122 77.535 145.002 78.8331 143.602 79.8513C141.947 81.0731 140.165 81.9386 138.282 82.4477C136.385 82.9568 133.942 83.2113 130.951 83.2113H118.312V41.8096H129.996C133.127 41.8096 135.482 41.9114 137.047 42.1023C138.612 42.2932 140.114 42.7514 141.552 43.4768C143.131 44.2659 144.289 45.3096 145.014 46.6077C145.74 47.8932 146.109 49.4077 146.109 51.1514C146.109 53.0986 145.562 54.8423 144.467 56.3695C143.372 57.9095 141.858 59.1059 139.923 59.9841V60.2132C142.545 60.875 144.582 62.0968 146.02 63.8659C147.458 65.635 148.183 67.8495 148.183 70.4968M140.025 51.9405C140.025 50.935 139.847 50.0696 139.491 49.3441C139.134 48.6059 138.562 48.0332 137.772 47.6005C136.831 47.1041 135.774 46.7987 134.603 46.6841C133.445 46.5696 131.829 46.5187 129.78 46.5187H124.154V58.635H130.811C132.643 58.635 133.992 58.5459 134.858 58.3677C135.723 58.1895 136.627 57.8205 137.543 57.2732C138.434 56.7386 139.058 56.0259 139.44 55.1605C139.809 54.295 140 53.2132 140 51.9405M142.1 70.7386C142.1 69.1732 141.858 67.8877 141.387 66.8823C140.916 65.8768 139.962 65.0113 138.511 64.2986C137.582 63.8404 136.576 63.535 135.482 63.4077C134.387 63.2804 132.834 63.2168 130.823 63.2168H124.167V78.5404H128.927C131.485 78.5404 133.509 78.4259 134.998 78.2095C136.474 77.9931 137.785 77.5095 138.905 76.7841C140.012 76.0586 140.814 75.2313 141.336 74.315C141.845 73.3986 142.1 72.2022 142.1 70.7386Z" fill="white"/>
<path d="M154.025 83.2367V41.8223H181.618V46.7223H159.867V58.075H180.141V62.975H159.867V78.3367H181.618V83.2367H154.025Z" fill="white"/>
<path d="M200.289 83.9748C197.094 83.9748 194.383 83.6693 192.143 83.0457C189.903 82.4221 187.803 81.6584 185.831 80.7548V73.8693H186.251C188.185 75.5748 190.374 76.8857 192.818 77.8275C195.261 78.7566 197.616 79.2275 199.881 79.2275C203.114 79.2275 205.558 78.5911 207.212 77.3184C208.867 76.0457 209.694 74.3784 209.694 72.3039C209.694 70.6493 209.261 69.313 208.396 68.2694C207.531 67.2257 206.143 66.4621 204.26 65.9657C202.898 65.5966 201.651 65.2912 200.531 65.0494C199.411 64.8075 197.998 64.4894 196.305 64.0821C194.791 63.713 193.429 63.2421 192.22 62.6694C191.011 62.0966 189.954 61.3457 189.025 60.4166C188.121 59.513 187.409 58.4439 186.912 57.2094C186.403 55.9748 186.161 54.5621 186.161 52.9457C186.161 49.5858 187.549 46.7858 190.336 44.5076C193.111 42.2421 196.661 41.0967 200.976 41.0967C203.445 41.0967 205.774 41.3258 207.963 41.7967C210.165 42.2549 212.201 42.9167 214.072 43.7694V50.3621H213.627C212.227 49.153 210.432 48.0967 208.243 47.2058C206.054 46.3021 203.763 45.8567 201.358 45.8567C198.634 45.8567 196.445 46.4548 194.765 47.6512C193.085 48.8476 192.258 50.413 192.258 52.3603C192.258 54.1167 192.754 55.5166 193.734 56.5603C194.714 57.5912 196.152 58.3548 198.023 58.8385C199.271 59.1566 200.785 59.513 202.58 59.9076C204.374 60.3021 205.863 60.6712 207.047 61.0021C210.089 61.8675 212.303 63.1912 213.703 64.9475C215.103 66.7039 215.803 68.8803 215.803 71.4512C215.803 73.0675 215.46 74.6584 214.76 76.2366C214.06 77.8148 213.08 79.1511 211.82 80.233C210.394 81.4421 208.803 82.3584 207.021 83.0075C205.24 83.6566 203 83.9748 200.327 83.9748" fill="white"/>
<path d="M232.069 83.2367V46.7223H217.267V41.8223H252.712V46.7223H237.923V83.2367H232.069Z" fill="white"/>
<path d="M156.229 99.165L159.972 88.061H161.792L165.536 99.165H163.977L162.97 96.0628H158.727L157.72 99.165H156.229ZM162.56 94.8025L160.845 89.5674L159.137 94.8025H162.56ZM171.233 99.3813C170.447 99.3813 169.729 99.262 169.078 99.0233C168.426 98.7847 167.867 98.4218 167.4 97.9346C166.933 97.4424 166.575 96.8334 166.326 96.1075C166.077 95.3817 165.953 94.5464 165.953 93.6018C165.953 92.707 166.077 91.9065 166.326 91.2006C166.58 90.4896 166.94 89.8831 167.407 89.381C167.86 88.8938 168.417 88.5184 169.078 88.2549C169.739 87.9914 170.462 87.8597 171.248 87.8597C171.621 87.8597 171.979 87.887 172.322 87.9417C172.665 87.9964 172.993 88.071 173.306 88.1654C173.555 88.24 173.831 88.3444 174.134 88.4786C174.442 88.6079 174.691 88.7197 174.88 88.8142V90.5965H174.753C174.569 90.4325 174.377 90.2783 174.179 90.1342C173.985 89.985 173.709 89.8259 173.351 89.6569C173.053 89.5077 172.71 89.3835 172.322 89.284C171.934 89.1846 171.516 89.1349 171.069 89.1349C170 89.1349 169.135 89.5376 168.474 90.343C167.817 91.1484 167.489 92.2197 167.489 93.5571C167.489 94.3028 167.576 94.9541 167.75 95.5109C167.924 96.0677 168.175 96.54 168.504 96.9278C168.822 97.3106 169.205 97.604 169.652 97.8078C170.104 98.0067 170.611 98.1061 171.173 98.1061C171.591 98.1061 172.006 98.0763 172.419 98.0166C172.831 97.9569 173.179 97.8675 173.463 97.7481V94.877H170.897V93.5795H174.924V98.4268C174.735 98.5113 174.482 98.6182 174.164 98.7474C173.85 98.8767 173.557 98.9786 173.284 99.0532C172.921 99.1626 172.593 99.2446 172.299 99.2993C172.006 99.354 171.651 99.3813 171.233 99.3813ZM184.85 99.165H183.374V93.7286H178.265V99.165H176.789V88.061H178.265V92.4161H183.374V88.061H184.85V99.165ZM199.974 99.165H198.057L194.008 93.9971L193.359 94.7279V99.165H191.882V88.061H193.359V93.1693L197.908 88.061H199.705L195.111 93.0202L199.974 99.165ZM209.459 99.165H207.543L204.023 94.7503H202.338V99.165H200.861V88.061H203.725C204.361 88.061 204.893 88.0958 205.321 88.1654C205.753 88.235 206.163 88.3966 206.551 88.6501C206.939 88.8987 207.245 89.2194 207.468 89.6121C207.697 90.0049 207.811 90.4921 207.811 91.0738C207.811 91.8891 207.605 92.5702 207.192 93.1171C206.78 93.664 206.218 94.0692 205.507 94.3327L209.459 99.165ZM206.268 91.1857C206.268 90.8625 206.211 90.5766 206.096 90.3281C205.982 90.0745 205.805 89.8682 205.567 89.7091C205.358 89.5699 205.114 89.4729 204.836 89.4183C204.557 89.3586 204.212 89.3288 203.799 89.3288H202.338V93.5198H203.635C204.058 93.5198 204.438 93.4825 204.776 93.4079C205.114 93.3334 205.403 93.1793 205.641 92.9456C205.855 92.7368 206.012 92.4882 206.111 92.1999C206.215 91.9115 206.268 91.5734 206.268 91.1857ZM209.146 99.165L212.89 88.061H214.709L218.453 99.165H216.894L215.888 96.0628H211.644L210.638 99.165H209.146ZM215.478 94.8025L213.762 89.5674L212.055 94.8025H215.478ZM227.596 99.165H225.679L221.63 93.9971L220.981 94.7279V99.165H219.505V88.061H220.981V93.1693L225.53 88.061H227.327L222.734 93.0202L227.596 99.165ZM236.336 89.3362C236.758 89.8234 237.087 90.4275 237.32 91.1484C237.554 91.8692 237.671 92.692 237.671 93.6168C237.671 94.5166 237.556 95.3295 237.328 96.0553C237.099 96.7812 236.768 97.3902 236.336 97.8824C235.883 98.3994 235.354 98.7822 234.747 99.0308C234.146 99.2744 233.482 99.3962 232.756 99.3962C232.006 99.3962 231.329 99.2694 230.728 99.0159C230.126 98.7623 229.609 98.3845 229.177 97.8824C228.749 97.3902 228.421 96.7837 228.192 96.0628C227.964 95.3419 227.849 94.5266 227.849 93.6168C227.849 92.6821 227.964 91.8618 228.192 91.1558C228.426 90.4499 228.757 89.8433 229.184 89.3362C229.612 88.844 230.126 88.4712 230.728 88.2176C231.334 87.9591 232.011 87.8298 232.756 87.8298C233.512 87.8298 234.193 87.9616 234.8 88.2251C235.406 88.4886 235.918 88.8589 236.336 89.3362ZM236.134 93.6168C236.134 92.881 236.055 92.2297 235.896 91.6629C235.737 91.0962 235.513 90.6263 235.225 90.2535C234.931 89.8707 234.576 89.5848 234.158 89.3959C233.746 89.202 233.281 89.105 232.764 89.105C232.227 89.105 231.757 89.1995 231.354 89.3884C230.957 89.5724 230.604 89.8607 230.295 90.2535C230.002 90.6313 229.776 91.1061 229.617 91.6778C229.463 92.2496 229.386 92.8959 229.386 93.6168C229.386 95.0734 229.691 96.1895 230.303 96.9651C230.914 97.7357 231.735 98.121 232.764 98.121C233.793 98.121 234.611 97.7357 235.217 96.9651C235.829 96.1895 236.134 95.0734 236.134 93.6168ZM234.829 83.8849L232.794 86.6739H231.682L233.017 83.8849H234.829ZM251.75 88.061L248.961 99.165H247.298L245.039 89.9477L242.831 99.165H241.205L238.364 88.061H239.878L242.115 97.2932L244.338 88.061H245.836L248.081 97.3827L250.303 88.061H251.75Z" fill="white"/>
<path d="M96.3325 83.2884L86.6343 77.7012H61.2944L51.5962 83.2884C60.8744 99.4139 88.6325 125.823 118.707 128.114C108.232 122.247 91.5471 101.157 96.3325 83.2884Z" fill="white"/>
<path d="M103.18 0C103.332 12.0145 93.418 36.9981 75.5489 41.7836V52.9835L88.2252 74.9253L97.9234 80.538C107.252 64.4381 116.251 27.1981 103.18 0Z" fill="white"/>
<path d="M72.3671 41.7852C53.7599 41.7597 17.0036 52.5906 0 77.4979C10.3218 71.3506 36.9217 67.4561 50.0054 80.5397L59.7035 74.927L72.3671 52.9852V41.7852Z" fill="white"/>
<path d="M68.0271 68.5383C68.0271 65.2547 70.6871 62.6074 73.9708 62.6074C77.2544 62.6074 79.9144 65.2674 79.9144 68.5383C79.9144 71.8092 77.2544 74.4819 73.9708 74.4819C70.6871 74.4819 68.0271 71.8347 68.0271 68.5383Z" fill="white"/>
</svg>
