<svg width="266" height="90" viewBox="0 0 266 90" fill="none" xmlns="http://www.w3.org/2000/svg">
<path d="M81.1859 68.6683C80.8393 68.9859 80.398 69.2082 79.8623 69.367C79.3265 69.5258 78.7907 69.6211 78.2234 69.6211C76.8682 69.6211 75.7967 69.24 75.0403 68.5095C74.2839 67.779 73.9057 66.7308 73.9057 65.3333V52.8193H76.3639V55.8049H80.2404V57.8376H76.3639V65.238C76.3639 65.9686 76.553 66.5403 76.8997 66.9532C77.2779 67.3343 77.7822 67.5566 78.4755 67.5566C79.1689 67.5566 79.8623 67.3343 80.398 66.9214L81.1544 68.7L81.1859 68.6683Z" fill="white"/>
<path d="M98.5514 61.2364V69.4627H96.2192V67.6523C95.3998 68.8909 93.887 69.6215 91.7754 69.6215C88.7183 69.6215 86.7643 67.9699 86.7643 65.6195C86.7643 63.2692 88.1826 61.6176 92.2166 61.6176H96.0931V61.1412C96.0931 59.0449 94.8955 57.838 92.4688 57.838C90.042 57.838 89.2226 58.4097 88.1825 59.299L87.174 57.4568C88.5923 56.3134 90.6093 55.71 92.7839 55.71C96.5028 55.71 98.5829 57.5204 98.5829 61.2364H98.5514ZM96.1246 65.3019V63.3962H92.3427C89.9159 63.3962 89.2226 64.3491 89.2226 65.4925C89.2226 66.6359 90.3572 67.7158 92.2166 67.7158C94.0761 67.7158 95.5258 66.8582 96.1246 65.3019Z" fill="white"/>
<path d="M112.702 55.6787V58.0608C112.513 58.0608 112.324 58.0608 112.135 58.0608C109.488 58.0608 107.88 59.6806 107.88 62.6662V69.4632H105.422V55.8058H107.786V58.0926C108.668 56.5045 110.338 55.6787 112.702 55.6787Z" fill="white"/>
<path d="M131.706 55.837V67.6205C131.706 72.4482 129.28 74.6398 124.678 74.6398C120.077 74.6398 119.699 73.941 118.218 72.607L119.384 70.7014C120.644 71.7812 122.598 72.48 124.584 72.48C127.767 72.48 129.248 70.9872 129.248 67.9063V66.8265C128.082 68.2557 126.317 68.9227 124.363 68.9227C120.455 68.9227 117.493 66.2548 117.493 62.3163C117.493 58.3779 120.455 55.71 124.363 55.71C128.271 55.71 128.208 56.4722 129.374 57.965V55.8688H131.706V55.837ZM129.311 62.2846C129.311 59.6484 127.357 57.8697 124.647 57.8697C121.936 57.8697 119.982 59.6484 119.982 62.2846C119.982 64.9208 121.936 66.7312 124.647 66.7312C127.357 66.7312 129.311 64.889 129.311 62.2846Z" fill="white"/>
<path d="M139.302 51.613C139.302 50.7237 140.027 49.9932 140.972 49.9932C141.918 49.9932 142.643 50.6919 142.643 51.5495C142.643 52.407 141.949 53.2011 140.972 53.2011C139.995 53.2011 139.302 52.5023 139.302 51.613ZM139.743 55.8373H142.201V69.4947H139.743V55.8373Z" fill="white"/>
<path d="M173.529 62.6345C173.529 66.827 170.629 69.622 166.69 69.622C162.75 69.622 163.097 68.8597 161.962 67.3987V74.4497H159.504V55.8058H161.868V57.9655C162.971 56.441 164.704 55.6787 166.69 55.6787C170.661 55.6787 173.529 58.4737 173.529 62.6345ZM171.07 62.6345C171.07 59.7442 169.116 57.8385 166.5 57.8385C163.885 57.8385 161.962 59.7442 161.962 62.6345C161.962 65.5247 163.916 67.4622 166.5 67.4622C169.085 67.4622 171.07 65.5565 171.07 62.6345Z" fill="white"/>
<path d="M186.955 55.6787V58.0608C186.765 58.0608 186.576 58.0608 186.387 58.0608C183.74 58.0608 182.133 59.6806 182.133 62.6662V69.4632H179.674V55.8058H182.038V58.0926C182.92 56.5045 184.591 55.6787 186.955 55.6787Z" fill="white"/>
<path d="M204.005 61.2364V69.4627H201.673V67.6523C200.853 68.8909 199.34 69.6215 197.229 69.6215C194.172 69.6215 192.218 67.9699 192.218 65.6195C192.218 63.2692 193.636 61.6176 197.67 61.6176H201.547V61.1412C201.547 59.0449 200.349 57.838 197.922 57.838C195.495 57.838 194.676 58.4097 193.636 59.299L192.627 57.4568C194.046 56.3134 196.063 55.71 198.237 55.71C201.956 55.71 204.036 57.5204 204.036 61.2364H204.005ZM201.547 65.3019V63.3962H197.765C195.338 63.3962 194.644 64.3491 194.644 65.4925C194.644 66.6359 195.779 67.7158 197.639 67.7158C199.498 67.7158 200.948 66.8582 201.547 65.3019Z" fill="white"/>
<path d="M209.678 62.6345C209.678 58.569 212.672 55.6787 216.832 55.6787C220.992 55.6787 221.276 56.6951 222.347 58.6008L220.488 59.8077C219.605 58.4737 218.282 57.8385 216.8 57.8385C214.153 57.8385 212.136 59.7124 212.136 62.6345C212.136 65.5565 214.122 67.4622 216.8 67.4622C219.479 67.4622 219.605 66.8587 220.488 65.493L222.347 66.6682C221.276 68.5738 219.259 69.5902 216.832 69.5902C212.672 69.5902 209.678 66.6682 209.678 62.6027V62.6345Z" fill="white"/>
<path d="M241.036 55.8389L234.481 70.862C233.283 73.7523 231.708 74.6416 229.659 74.6416C227.611 74.6416 227.043 74.197 226.192 73.3712L227.232 71.529C227.894 72.1642 228.745 72.5454 229.659 72.5454C230.573 72.5454 231.582 72.0054 232.243 70.4491L232.685 69.4963L226.697 55.8706H229.249L233.977 66.7966L238.641 55.8706H241.036V55.8389Z" fill="white"/>
<path d="M117.304 43.5772H114.562V36.3356C111 35.9545 109.235 34.1123 109.235 30.9044V17.9775H111.977V30.9044C111.977 33.0007 113.27 34.0488 115.885 34.0488C118.501 34.0488 119.793 33.0007 119.793 30.9044V17.9775H122.535V30.9044C122.535 34.1441 120.802 35.9545 117.304 36.3356V43.5772Z" fill="white"/>
<path d="M131.738 43.5772H128.996V17.9457H130.162L131.139 20.5184C132.4 18.4221 134.133 17.374 136.339 17.374C140.184 17.374 142.075 19.2162 142.075 22.9005V43.6089H139.333V22.9005C139.333 21.9159 139.113 21.1219 138.703 20.5819C138.262 20.042 137.474 19.7561 136.339 19.7561C135.205 19.7561 134.133 20.2008 133.156 21.0901C132.179 21.9794 131.707 22.837 131.707 23.6945V43.6089L131.738 43.5772Z" fill="white"/>
<path d="M152.287 43.5768H149.545V17.9453H152.287V43.5768Z" fill="white"/>
<path d="M169.684 38.6527V36.4929H172.426V38.6527C172.426 40.3996 171.89 41.7653 170.818 42.7181C169.747 43.671 168.139 44.1474 165.996 44.1474C163.853 44.1474 162.246 43.671 161.143 42.7181C160.04 41.7653 159.504 40.3996 159.504 38.6527V22.899C159.504 21.1521 160.04 19.7864 161.111 18.8336C162.183 17.8807 163.79 17.4043 165.933 17.4043C168.076 17.4043 169.684 17.8807 170.787 18.8336C171.89 19.7864 172.426 21.1521 172.426 22.899V31.5699H162.246V38.6527C162.246 40.7489 163.475 41.7971 165.965 41.7971C168.455 41.7971 169.684 40.7489 169.684 38.6527ZM162.246 22.8673V29.1878H169.684V22.8673C169.684 20.771 168.455 19.7229 165.965 19.7229C163.475 19.7229 162.246 20.771 162.246 22.8673Z" fill="white"/>
<path d="M182.385 43.5772H179.643V17.9457H180.809L181.943 20.8678C182.763 18.5174 184.118 17.374 185.946 17.374C189.035 17.374 190.61 19.0891 190.61 22.4876V25.0603H187.995V22.3288C187.995 20.5819 187.27 19.7244 185.851 19.7244C184.433 19.7244 184.213 20.2326 183.488 21.2172C182.763 22.2018 182.416 23.6628 182.416 25.5367V43.5454L182.385 43.5772Z" fill="white"/>
<path d="M207.724 38.6541C207.724 42.3384 205.518 44.1806 201.105 44.1806C196.693 44.1806 194.487 42.3384 194.487 38.6541V35.3192H197.229V38.8129C197.229 39.7658 197.544 40.4963 198.206 41.0362C198.868 41.5762 199.813 41.8303 201.105 41.8303C202.398 41.8303 203.343 41.5762 204.005 41.0362C204.667 40.4963 204.982 39.7975 204.982 38.8764C204.982 37.9554 204.887 37.2566 204.698 36.7167C204.509 36.1767 204.099 35.605 203.501 35.0016L196.63 28.2364C195.811 27.4106 195.275 26.6165 194.96 25.8543C194.645 25.092 194.518 24.1074 194.518 22.9322C194.518 21.1853 195.054 19.8196 196.157 18.8668C197.26 17.9139 198.868 17.4375 201.074 17.4375C205.265 17.4375 207.377 19.2797 207.377 22.964V26.2989H204.635V22.8052C204.635 21.8523 204.32 21.1218 203.721 20.5819C203.122 20.0419 202.177 19.7878 200.979 19.7878C199.782 19.7878 198.836 20.0419 198.237 20.5819C197.639 21.1218 197.323 21.8206 197.323 22.7417C197.323 23.6627 197.418 24.3932 197.607 24.9014C197.796 25.4414 198.206 25.9813 198.805 26.553L205.801 33.3182C206.558 34.144 207.093 34.9698 207.377 35.7321C207.661 36.4943 207.818 37.4789 207.818 38.6541H207.724Z" fill="white"/>
<path d="M217.557 43.5768H214.815V17.9453H217.557V28.8395L224.364 17.9453H227.421L220.488 28.9665L227.894 43.545H224.869L218.849 31.6027L217.557 33.699V43.545V43.5768Z" fill="white"/>
<path d="M235.301 43.5768H232.559V17.9453H235.301V43.5768Z" fill="white"/>
<path d="M252.697 38.6527V36.4929H255.439V38.6527C255.439 40.3996 254.904 41.7653 253.832 42.7181C252.76 43.671 251.153 44.1474 249.01 44.1474C246.867 44.1474 245.26 43.671 244.157 42.7181C243.053 41.7653 242.518 40.3996 242.518 38.6527V22.899C242.518 21.1521 243.053 19.7864 244.125 18.8336C245.197 17.8807 246.804 17.4043 248.947 17.4043C251.09 17.4043 252.697 17.8807 253.801 18.8336C254.904 19.7864 255.439 21.1521 255.439 22.899V31.5699H245.26V38.6527C245.26 40.7489 246.489 41.7971 248.979 41.7971C251.468 41.7971 252.697 40.7489 252.697 38.6527ZM245.291 22.8673V29.1878H252.729V22.8673C252.729 20.771 251.5 19.7229 249.01 19.7229C246.52 19.7229 245.291 20.771 245.291 22.8673Z" fill="white"/>
<path d="M182.006 17.9453H179.643V21.4391H182.006V17.9453Z" fill="white"/>
<path d="M131.108 17.9453H128.996V21.4391H131.108V17.9453Z" fill="white"/>
<path d="M65.9636 43.5768H63.2217V17.9453H65.9636V43.5768Z" fill="white"/>
<path d="M76.5215 43.5772H73.7796V17.9457H74.9457L75.9227 20.5184C77.1834 18.4221 78.9168 17.374 81.1229 17.374C84.9679 17.374 86.8589 19.2162 86.8589 22.9005V43.6089H84.1169V22.9005C84.1169 21.9159 83.8963 21.1219 83.4866 20.5819C83.0454 20.042 82.2575 19.7561 81.1229 19.7561C79.9883 19.7561 78.9168 20.2008 77.9398 21.0901C76.9628 21.9794 76.49 22.837 76.49 23.6945V43.6089L76.5215 43.5772Z" fill="white"/>
<path d="M92.3742 20.3279V17.9775H105.17V20.3279L94.6434 41.2269H104.981V43.5772H91.8069V41.2269L102.333 20.3279H92.4057H92.3742ZM102.806 31.6032H94.1076V29.3481H102.806V31.6032Z" fill="white"/>
<path d="M75.8912 17.9453H73.7796V22.6778H75.8912V17.9453Z" fill="white"/>
<path d="M44.4065 41.1617C44.6901 42.7498 44.7216 44.4014 44.4695 46.0529C43.3664 54.9461 35.708 62.0925 25.8749 63.5535L26.5998 66.4755C28.4277 66.6979 30.2557 66.6979 32.0206 66.4755L32.9976 62.4736C33.7855 62.3148 34.5734 62.0925 35.3298 61.8384L38.1663 64.7922C39.8366 64.0617 41.4124 63.1406 42.8622 62.0607L41.7276 58.1223C42.3264 57.5823 42.8937 57.0106 43.4295 56.4072L47.3375 57.5506C48.409 56.1213 49.323 54.5332 50.0479 52.8181L47.1169 49.9596C47.306 49.3879 47.4636 48.8162 47.6211 48.2127C47.6842 48.0222 47.7157 47.7998 47.7472 47.6093L51.7182 46.6247C51.9389 44.7825 51.9389 42.9403 51.7182 41.1617L47.7472 40.1453C47.5896 39.3513 47.369 38.5573 47.1169 37.795L50.0479 34.9365C49.323 33.2531 48.409 31.665 47.3375 30.204L43.4295 31.3474C42.8937 30.7439 42.3264 30.1722 41.7276 29.6323L42.8622 25.6939C41.4439 24.614 39.8681 23.6929 38.1663 22.9624L35.3298 25.9162C34.7625 25.7256 34.1952 25.5668 33.5964 25.408C33.4073 25.3445 33.1867 25.3127 32.9976 25.281L32.0206 21.2791C30.1926 21.0567 28.3647 21.0567 26.5998 21.2791L25.8749 24.2329C35.4874 25.6939 43.0513 32.5861 44.4065 41.1935V41.1617Z" fill="white"/>
<path d="M10.8416 40.1141L6.87058 41.0987C6.64996 42.9409 6.64996 44.7831 6.87058 46.5617L10.8416 47.5781C10.9992 48.3721 11.2198 49.1661 11.472 49.9284L8.54094 52.7869C9.26581 54.4703 10.1798 56.0584 11.2513 57.5194L15.1594 56.376C15.6951 56.9794 16.2624 57.5511 16.8612 58.0911L15.7266 62.0295C17.1449 63.1094 18.7207 64.0305 20.4226 64.761L23.259 61.8072C23.2906 61.8072 23.3221 61.8072 23.3851 61.8389C27.4507 61.6166 31.2327 60.3462 34.3212 58.3769C31.6739 59.298 28.7429 59.5204 25.8119 58.8216C17.5861 56.8842 12.4805 48.5627 14.403 40.2729C16.3255 31.9832 24.5827 26.8379 32.8085 28.7753C33.2812 28.8706 33.7224 29.0294 34.1637 29.1565C31.0751 27.219 27.3246 25.9803 23.2906 25.7897L20.4541 22.8359C18.7837 23.5664 17.2079 24.4875 15.7582 25.5674L16.8927 29.5058C16.2939 30.0458 15.7266 30.6175 15.1909 31.2209L11.2829 30.0775C10.2113 31.5068 9.29733 33.0949 8.57246 34.81L11.5035 37.6685C11.3144 38.2402 11.1568 38.8119 10.9992 39.4154C10.9362 39.606 10.9047 39.8283 10.8731 40.0189L10.8416 40.1141Z" fill="url(#paint0_linear_706_171)"/>
<defs>
<linearGradient id="paint0_linear_706_171" x1="6.713" y1="43.862" x2="34.3528" y2="43.862" gradientUnits="userSpaceOnUse">
<stop stop-color="white"/>
<stop offset="0.6" stop-color="white"/>
<stop offset="0.8" stop-color="white" stop-opacity="0.5"/>
<stop offset="0.9" stop-color="white" stop-opacity="0.2"/>
<stop offset="1" stop-color="white" stop-opacity="0"/>
</linearGradient>
</defs>
</svg>
