<svg width="45" height="45" viewBox="0 0 45 45" fill="none" xmlns="http://www.w3.org/2000/svg">
<path d="M38.3813 3.75026H6.6188C6.26176 3.7453 5.90724 3.81073 5.57548 3.94279C5.24373 4.07486 4.94124 4.27099 4.68529 4.51997C4.42935 4.76896 4.22495 5.06592 4.08378 5.39391C3.94262 5.72189 3.86744 6.07447 3.86255 6.43151V38.569C3.86744 38.9261 3.94262 39.2786 4.08378 39.6066C4.22495 39.9346 4.42935 40.2316 4.68529 40.4805C4.94124 40.7295 5.24373 40.9257 5.57548 41.0577C5.90724 41.1898 6.26176 41.2552 6.6188 41.2503H38.3813C38.7383 41.2552 39.0929 41.1898 39.4246 41.0577C39.7564 40.9257 40.0589 40.7295 40.3148 40.4805C40.5708 40.2316 40.7751 39.9346 40.9163 39.6066C41.0575 39.2786 41.1327 38.9261 41.1376 38.569V6.43151C41.1327 6.07447 41.0575 5.72189 40.9163 5.39391C40.7751 5.06592 40.5708 4.76896 40.3148 4.51997C40.0589 4.27099 39.7564 4.07486 39.4246 3.94279C39.0929 3.81073 38.7383 3.7453 38.3813 3.75026ZM15.1688 35.1378H9.5438V18.2628H15.1688V35.1378ZM12.3563 15.9003C11.5805 15.9003 10.8366 15.5921 10.288 15.0435C9.73947 14.495 9.4313 13.751 9.4313 12.9753C9.4313 12.1995 9.73947 11.4555 10.288 10.907C10.8366 10.3584 11.5805 10.0503 12.3563 10.0503C12.7682 10.0035 13.1854 10.0444 13.5804 10.17C13.9755 10.2957 14.3396 10.5034 14.6488 10.7796C14.958 11.0557 15.2054 11.394 15.3748 11.7724C15.5442 12.1508 15.6318 12.5607 15.6318 12.9753C15.6318 13.3898 15.5442 13.7997 15.3748 14.1781C15.2054 14.5565 14.958 14.8948 14.6488 15.171C14.3396 15.4471 13.9755 15.6548 13.5804 15.7805C13.1854 15.9062 12.7682 15.947 12.3563 15.9003ZM35.4563 35.1378H29.8313V26.0815C29.8313 23.8128 29.025 22.3315 26.9813 22.3315C26.3488 22.3361 25.7329 22.5345 25.2166 22.9C24.7003 23.2654 24.3085 23.7803 24.0938 24.3753C23.9471 24.816 23.8835 25.2801 23.9063 25.744V35.119H18.2813C18.2813 35.119 18.2813 19.7815 18.2813 18.244H23.9063V20.6253C24.4173 19.7386 25.1605 19.0081 26.0559 18.5125C26.9513 18.0169 27.9649 17.775 28.9875 17.8128C32.7375 17.8128 35.4563 20.2315 35.4563 25.4253V35.1378Z" fill="#F9FEFF"/>
</svg>
