<svg width="16" height="16" viewBox="0 0 16 16" fill="none" xmlns="http://www.w3.org/2000/svg">
<circle cx="3.95652" cy="3.95652" r="3.95652" transform="matrix(1 0 0 -1 3.95667 11.8696)" fill="#D9D9D9"/>
<path d="M7.18713 15.7983C7.67015 15.8352 8.15627 15.8352 8.63928 15.7983C9.04309 15.7677 9.37418 15.4875 9.4635 15.1206C9.72622 14.0405 10.9641 13.5279 11.9137 14.106C12.2363 14.3024 12.6689 14.2662 12.9762 14.0024C13.3436 13.687 13.6869 13.3428 14.0026 12.9751C14.2662 12.6678 14.3025 12.2361 14.1061 11.9136C13.5278 10.964 14.0405 9.72614 15.1207 9.46338C15.4877 9.37408 15.7678 9.04298 15.7985 8.63916C15.8353 8.15614 15.8353 7.67024 15.7985 7.18701C15.7678 6.78319 15.4877 6.45209 15.1207 6.36279C14.0407 6.10004 13.528 4.86215 14.1061 3.9126C14.3025 3.59 14.2663 3.15737 14.0026 2.8501C13.6872 2.48281 13.3437 2.1393 12.9762 1.82373C12.6689 1.55997 12.2363 1.52379 11.9137 1.72021C10.9641 2.29846 9.72623 1.78586 9.4635 0.705566C9.3742 0.338624 9.0431 0.0584974 8.63928 0.027832C8.15626 -0.00902086 7.67015 -0.00902746 7.18713 0.027832C6.78331 0.0584974 6.45222 0.338624 6.36292 0.705566C6.10017 1.78564 4.86228 2.29828 3.91272 1.72021C3.59017 1.52386 3.15844 1.56008 2.8512 1.82373C2.48374 2.13919 2.13954 2.48245 1.82385 2.8501C1.5601 3.15736 1.52394 3.59 1.72034 3.9126C2.29862 4.86217 1.786 6.10007 0.705688 6.36279C0.338781 6.45212 0.0586169 6.78321 0.0279541 7.18701C-0.00889997 7.67003 -0.0089031 8.15615 0.0279541 8.63916C0.0586173 9.04296 0.338774 9.37406 0.705688 9.46338C1.78579 9.7261 2.29841 10.964 1.72034 11.9136C1.52401 12.2361 1.56026 12.6679 1.82385 12.9751C2.13941 13.3427 2.48343 13.6867 2.8512 14.0024C3.15843 14.2661 3.59018 14.3023 3.91272 14.106C4.86229 13.5277 6.10019 14.0403 6.36292 15.1206C6.45222 15.4875 6.78332 15.7677 7.18713 15.7983ZM7.91272 12.8853C5.16659 12.885 2.94006 10.6588 2.94006 7.9126C2.94029 5.1666 5.16673 2.94018 7.91272 2.93994C10.6589 2.93994 12.8852 5.16645 12.8854 7.9126C12.8854 10.6589 10.6591 12.8853 7.91272 12.8853Z" fill="#D9D9D9"/>
</svg>
