<svg width="16" height="16" viewBox="0 0 16 16" fill="none" xmlns="http://www.w3.org/2000/svg">
<path d="M7.18701 15.7983C7.67003 15.8352 8.15614 15.8352 8.63916 15.7983C9.04297 15.7677 9.37407 15.4875 9.46338 15.1206C9.7261 14.0405 10.964 13.5279 11.9136 14.106C12.2361 14.3023 12.6679 14.2661 12.9751 14.0024C13.3427 13.6869 13.6867 13.3429 14.0024 12.9751C14.266 12.6679 14.3023 12.2361 14.106 11.9136C13.5277 10.964 14.0403 9.7261 15.1206 9.46338C15.4875 9.37406 15.7677 9.04297 15.7983 8.63916C15.8352 8.15614 15.8352 7.67023 15.7983 7.18701C15.7677 6.78321 15.4875 6.45211 15.1206 6.36279C14.0405 6.10007 13.5279 4.86217 14.106 3.9126C14.3024 3.59 14.2662 3.15736 14.0024 2.8501C13.687 2.48266 13.3428 2.1394 12.9751 1.82373C12.6679 1.56009 12.2361 1.52385 11.9136 1.72021C10.964 2.29849 9.72612 1.78585 9.46338 0.705566C9.37408 0.338624 9.04298 0.0584974 8.63916 0.027832C8.15614 -0.00902676 7.67003 -0.00902156 7.18701 0.027832C6.78319 0.0584974 6.45209 0.338624 6.36279 0.705566C6.10006 1.78565 4.86216 2.29826 3.9126 1.72021C3.59 1.52379 3.15737 1.55997 2.8501 1.82373C2.4828 2.13909 2.1393 2.4826 1.82373 2.8501C1.55997 3.15737 1.52379 3.59 1.72021 3.9126C2.29847 4.86216 1.78584 6.10005 0.705566 6.36279C0.338625 6.45209 0.0584968 6.78319 0.027832 7.18701C-0.00902294 7.67003 -0.00902607 8.15614 0.027832 8.63916C0.0584968 9.04298 0.338625 9.37408 0.705566 9.46338C1.78564 9.72613 2.29828 10.964 1.72021 11.9136C1.52384 12.2361 1.56008 12.6678 1.82373 12.9751C2.13919 13.3425 2.48245 13.6868 2.8501 14.0024C3.15737 14.2662 3.59 14.3024 3.9126 14.106C4.86217 13.5277 6.10007 14.0403 6.36279 15.1206C6.45211 15.4875 6.78321 15.7677 7.18701 15.7983ZM7.9126 12.8853C5.16641 12.8851 2.93994 10.6588 2.93994 7.9126C2.94016 5.16656 5.16655 2.94012 7.9126 2.93994C10.6588 2.93994 12.885 5.16645 12.8853 7.9126C12.8853 10.6589 10.6589 12.8853 7.9126 12.8853Z" fill="#F78F27"/>
<circle cx="3.95652" cy="3.95652" r="3.95652" transform="matrix(1 0 0 -1 3.95654 11.8696)" fill="#F78F27"/>
</svg>
