<svg width="98" height="96" viewBox="0 0 98 96" fill="none" xmlns="http://www.w3.org/2000/svg">
<path d="M51.3287 0.0144266C54.3048 0.219181 57.2675 0.646778 60.1776 1.29089C62.6096 1.82843 64.3758 3.78782 64.5912 6.05182C65.2247 12.716 72.3031 16.8562 78.6043 14.2473C80.7451 13.3607 83.3463 13.9547 84.9817 15.7957C86.9381 17.9982 88.7235 20.3481 90.3175 22.8161C91.649 24.878 91.4824 27.4845 89.9972 29.2336C85.6248 34.3818 87.6391 42.2032 93.9841 44.7171C96.1391 45.5714 97.5486 47.79 97.3739 50.2222C97.166 53.1326 96.7313 56.0283 96.074 58.8751C95.5256 61.2534 93.5222 62.9797 91.2073 63.1893C84.3935 63.8057 80.1641 70.7262 82.8348 76.89C83.7424 78.984 83.1355 81.5268 81.2541 83.1254C79.003 85.0376 76.6014 86.7838 74.0786 88.3416C71.9709 89.6427 69.3056 89.4779 67.5165 88.0245C62.2503 83.7461 54.2542 85.712 51.6868 91.916C50.8145 94.0231 48.5468 95.4004 46.0598 95.2285C43.0839 95.0237 40.1217 94.5972 37.2118 93.9531C34.7796 93.4158 33.0137 91.4562 32.7981 89.1922C32.1648 82.5278 25.0854 78.3874 18.7841 80.9965C16.6433 81.8831 14.0423 81.2882 12.4068 79.4472C10.4506 77.2449 8.66482 74.8956 7.07084 72.4278C5.73934 70.3658 5.90699 67.7595 7.39218 66.0104C11.7644 60.8622 9.74936 53.0397 3.40439 50.5258C1.24959 49.6715 -0.160082 47.4537 0.0145307 45.0217C0.222423 42.1112 0.657229 39.2144 1.3144 36.3687C1.86267 33.9903 3.86607 32.2642 6.18106 32.0546C12.995 31.4383 17.2247 24.5168 14.5537 18.3529C13.6463 16.2589 14.2529 13.716 16.1344 12.1175C18.3855 10.2053 20.787 8.46008 23.3098 6.9023C25.4175 5.60112 28.0827 5.76598 29.8719 7.21934C35.138 11.4976 43.1341 9.53156 45.7016 3.32789C46.5739 1.22074 48.8417 -0.157482 51.3287 0.0144266ZM53.1447 18.0007C36.417 15.5883 20.8632 26.8941 18.4045 43.2524C15.9461 59.611 27.5141 74.8285 44.242 77.241C60.9699 79.6533 76.5237 68.3477 78.9822 51.9892C81.4407 35.6306 69.8727 20.4131 53.1447 18.0007Z" fill="#FFAD5C"/>
</svg>
