<svg width="127" height="124" viewBox="0 0 127 124" fill="none" xmlns="http://www.w3.org/2000/svg">
<path d="M66.5483 0.0187416C70.4068 0.284207 74.2476 0.838411 78.0205 1.67351C81.1738 2.37027 83.4637 4.91038 83.7431 7.84577C84.5642 16.4862 93.7419 21.8545 101.912 18.4719C104.687 17.3224 108.059 18.0932 110.18 20.48C112.716 23.3354 115.031 26.3813 117.098 29.5809C118.824 32.2542 118.608 35.6337 116.682 37.9014C111.013 44.5761 113.625 54.7175 121.851 57.9768C124.645 59.0843 126.473 61.9597 126.247 65.1131C125.977 68.8865 125.413 72.6407 124.56 76.3318C123.849 79.4153 121.253 81.6529 118.252 81.9247C109.418 82.7235 103.933 91.6975 107.395 99.6891C108.572 102.404 107.786 105.701 105.346 107.773C102.428 110.253 99.3143 112.516 96.0435 114.535C93.311 116.222 89.8563 116.009 87.5367 114.125C80.709 108.577 70.3402 111.126 67.0117 119.17C65.8805 121.902 62.941 123.688 59.7165 123.465C55.8581 123.2 52.018 122.646 48.2453 121.811C45.0919 121.114 42.8021 118.574 42.5227 115.638C41.7015 106.998 32.523 101.629 24.3532 105.012C21.5776 106.162 18.2065 105.391 16.0861 103.004C13.5497 100.149 11.2338 97.103 9.16701 93.9032C7.44071 91.2299 7.65808 87.8505 9.58365 85.5829C15.2523 78.9082 12.6409 68.7668 4.41466 65.5075C1.62066 64.4 -0.207403 61.5246 0.0189449 58.3712C0.288482 54.5977 0.852409 50.8418 1.70444 47.1523C2.41531 44.0687 5.01213 41.8313 8.01351 41.5595C16.8481 40.7607 22.3323 31.7867 18.8693 23.795C17.6926 21.0801 18.479 17.7833 20.9184 15.7107C23.8369 13.2316 26.9505 10.9684 30.2212 8.94877C32.9539 7.26179 36.4094 7.47521 38.729 9.35951C45.5567 14.9069 55.9245 12.3577 59.2531 4.31401C60.3842 1.5821 63.3239 -0.20416 66.5483 0.0187416ZM68.9029 23.3381C47.215 20.2104 27.0497 34.8691 23.8622 56.0781C20.675 77.2871 35.6724 97.016 57.3602 100.144C79.048 103.272 99.2131 88.6136 102.401 67.4047C105.588 46.1956 90.5909 26.4658 68.9029 23.3381Z" fill="#F78F27"/>
</svg>
