<svg width="127" height="124" viewBox="0 0 127 124" fill="none" xmlns="http://www.w3.org/2000/svg">
<path d="M66.5493 0.0187621C70.4076 0.284236 74.2477 0.838326 78.0205 1.67339C81.1739 2.37012 83.4636 4.91112 83.7429 7.84661C84.5643 16.4869 93.7429 21.8547 101.913 18.472C104.688 17.3227 108.059 18.0932 110.18 20.4799C112.716 23.3355 115.032 26.3821 117.099 29.5819C118.825 32.2551 118.607 35.6337 116.682 37.9012C111.013 44.5759 113.625 54.7173 121.851 57.9766C124.645 59.0842 126.473 61.9604 126.247 65.1139C125.977 68.8872 125.413 72.6408 124.56 76.3317C123.849 79.4153 121.253 81.6538 118.252 81.9256C109.418 82.7244 103.934 91.6975 107.396 99.6891C108.573 102.404 107.787 105.701 105.347 107.773C102.429 110.253 99.3151 112.517 96.0443 114.536C93.3117 116.223 89.8564 116.009 87.5367 114.125C80.7091 108.577 70.3413 111.127 67.0126 119.17C65.8815 121.902 62.9411 123.688 59.7165 123.465C55.8581 123.2 52.0179 122.647 48.2451 121.812C45.0917 121.115 42.802 118.574 42.5227 115.638C41.7014 106.998 32.5237 101.63 24.354 105.013C21.5784 106.163 18.2065 105.391 16.0861 103.004C13.5499 100.149 11.2346 97.1028 9.16798 93.9032C7.44177 91.23 7.65822 87.8514 9.58351 85.5837C15.2523 78.9091 12.6408 68.7677 4.41452 65.5083C1.62041 64.4008 -0.207569 61.5246 0.0189449 58.3711C0.288482 54.5976 0.853375 50.8418 1.70541 47.1523C2.4164 44.0689 5.01231 41.8312 8.01351 41.5594C16.8481 40.7606 22.3323 31.7866 18.8693 23.7949C17.6928 21.08 18.479 17.7831 20.9184 15.7106C23.8369 13.2314 26.9505 10.9683 30.2212 8.94865C32.9539 7.26166 36.4092 7.47605 38.7289 9.36036C45.5566 14.9076 55.9245 12.3576 59.2531 4.31389C60.3843 1.58201 63.3248 -0.20432 66.5493 0.0187621ZM68.9028 23.3389C47.2149 20.2113 27.0497 34.869 23.8622 56.078C20.6748 77.2871 35.6723 97.0159 57.3602 100.144C79.0482 103.271 99.2142 88.6138 102.402 67.4048C105.589 46.1956 90.5908 26.4667 68.9028 23.3389Z" fill="#FFCD9C"/>
</svg>
