<svg width="431" height="421" viewBox="0 0 431 421" fill="none" xmlns="http://www.w3.org/2000/svg">
<path d="M182.439 1.93298C195.493 0.346599 208.692 -0.265263 221.868 0.104513C232.88 0.409372 242.333 7.42179 245.368 17.041C254.295 45.3558 288.74 57.3927 313.553 40.8662C321.982 35.2508 333.773 35.6629 342.552 42.2712C353.054 50.1773 362.957 58.8607 372.139 68.2168C379.809 76.0339 381.507 87.4511 376.712 96.2541C362.595 122.166 378.567 154.342 408.327 159.95C418.436 161.856 426.59 170.285 428.094 180.956C429.899 193.724 430.707 206.616 430.51 219.482C430.349 230.23 423.297 239.363 413.486 242.193C384.605 250.521 372.75 283.989 390.02 308.445C395.888 316.753 395.629 328.261 388.981 336.742C381.027 346.887 372.268 356.436 362.811 365.274C354.909 372.656 343.237 374.157 334.154 369.353C307.418 355.212 274.679 370.365 269.345 399.347C267.531 409.191 259.01 417.037 248.1 418.359C235.047 419.945 221.847 420.557 208.671 420.187C197.659 419.882 188.206 412.87 185.171 403.251C176.244 374.936 141.799 362.9 116.987 379.426C108.557 385.042 96.7657 384.629 87.9868 378.021C77.4851 370.115 67.5825 361.432 58.4 352.076C50.7296 344.259 49.0321 332.841 53.827 324.038C67.9436 298.126 51.972 265.95 22.2122 260.343C12.1036 258.436 3.94887 250.007 2.44483 239.336C0.640126 226.568 -0.168279 213.671 0.029083 200.811C0.189729 190.062 7.24221 180.929 17.0536 178.098C45.934 169.771 57.789 136.304 40.5191 111.848C34.651 103.54 34.9104 92.031 41.5585 83.5498C49.5123 73.4044 58.2708 63.8553 67.7281 55.0178C75.6297 47.6358 87.3019 46.1361 96.385 50.9392C123.121 65.0798 155.86 49.9271 161.195 20.9456C163.008 11.1014 171.529 3.25465 182.439 1.93298ZM206.995 78.2627C132.451 81.7203 75.7242 143.568 80.2922 216.404C84.8603 289.239 148.993 345.481 223.537 342.023C298.081 338.566 354.809 276.718 350.241 203.882C345.673 131.047 281.539 74.8052 206.995 78.2627Z" fill="#F78F27"/>
</svg>
