<svg width="164" height="161" viewBox="0 0 164 161" fill="none" xmlns="http://www.w3.org/2000/svg">
<path d="M78.2194 0.0382349C83.2268 -0.0997905 88.2484 0.136026 93.2194 0.74273C97.3741 1.24829 100.654 4.23728 101.395 7.98545C103.574 19.0184 116.101 24.794 126.192 19.4179C129.62 17.5914 134.065 18.1651 137.107 20.977C140.747 24.3414 144.126 27.9791 147.205 31.8455C149.777 35.0759 149.936 39.4575 147.748 42.6194C141.308 51.9265 145.989 64.6707 157.014 67.8473C160.759 68.927 163.488 72.4059 163.605 76.498C163.747 81.3943 163.507 86.3024 162.888 91.1651C162.371 95.2271 159.315 98.4337 155.483 99.1576C144.199 101.286 138.294 113.534 143.794 123.402C145.663 126.754 145.077 131.1 142.202 134.075C138.762 137.633 135.042 140.937 131.089 143.947C127.786 146.461 123.304 146.616 120.07 144.476C110.551 138.177 97.5186 142.752 94.2716 153.532C93.1681 157.194 89.6106 159.862 85.4256 159.976C80.4181 160.114 75.3966 159.878 70.4255 159.272C66.2709 158.766 62.9901 155.777 62.2492 152.029C60.0701 140.996 47.5443 135.219 37.4532 140.595C34.025 142.422 29.5795 141.848 26.537 139.036C22.8977 135.672 19.5184 132.035 16.4398 128.169C13.868 124.938 13.7092 120.557 15.8969 117.395C22.3375 108.088 17.6554 95.3434 6.62987 92.1668C2.88512 91.0872 0.156763 87.6082 0.039615 83.5162C-0.102436 78.6198 0.13783 73.7098 0.757429 68.8492C1.27363 64.7868 4.32939 61.5794 8.1625 60.8557C19.4456 58.7269 25.3509 46.4797 19.8509 36.6116C17.9821 33.2591 18.5679 28.913 21.4434 25.9385C24.8834 22.3804 28.6026 19.076 32.5562 16.0662C35.8594 13.5522 40.3407 13.3984 43.5748 15.538C53.0943 21.8369 66.1267 17.2614 69.3734 6.48125C70.4769 2.81965 74.0343 0.152 78.2194 0.0382349ZM84.2788 29.7981C55.92 28.4662 31.8295 49.8655 30.4723 77.5947C29.1153 105.324 51.0047 128.882 79.3634 130.214C107.722 131.546 131.811 110.147 133.169 82.4184C134.526 54.6893 112.637 31.1303 84.2788 29.7981Z" fill="#FFCD9C"/>
</svg>
