<svg width="95" height="93" viewBox="0 0 95 93" fill="none" xmlns="http://www.w3.org/2000/svg">
<path d="M49.6803 0.0139844C52.5607 0.21217 55.4275 0.625963 58.244 1.24935C60.5981 1.76947 62.3078 3.66582 62.5164 5.85715C63.1295 12.3073 69.9817 16.3142 76.0807 13.789C78.1527 12.9313 80.6694 13.5066 82.2522 15.2882C84.1457 17.4199 85.874 19.6943 87.417 22.083C88.7057 24.0786 88.5439 26.6009 87.1064 28.2936C82.8748 33.2761 84.8245 40.8463 90.9654 43.2795C93.0514 44.1062 94.4161 46.2536 94.247 48.6077C94.0458 51.4244 93.6245 54.2263 92.9883 56.9815C92.4577 59.2833 90.5199 60.954 88.2794 61.157C81.6841 61.7532 77.59 68.4518 80.1752 74.4175C81.0537 76.4443 80.4659 78.9059 78.6447 80.4531C76.466 82.3036 74.142 83.9934 71.7004 85.501C69.6604 86.7602 67.0808 86.6 65.3491 85.1933C60.2519 81.0524 52.5122 82.9558 50.0274 88.9604C49.183 90.9996 46.9881 92.3327 44.581 92.1663C41.7006 91.9681 38.8337 91.5543 36.0172 90.9309C33.6631 90.4108 31.9534 88.5144 31.7448 86.3231C31.1316 79.8731 24.2794 75.8661 18.1805 78.3913C16.1085 79.2492 13.592 78.6737 12.009 76.892C10.1156 74.7605 8.38699 72.4867 6.84413 70.0982C5.55541 68.1027 5.71732 65.5804 7.15471 63.8876C11.3866 58.905 9.43615 51.3337 3.29484 48.9007C1.20927 48.0738 -0.15486 45.9273 0.014097 43.5735C0.215293 40.7566 0.635877 37.9528 1.27193 35.1987C1.80259 32.8968 3.74129 31.2261 5.98189 31.0233C12.5772 30.427 16.6714 23.7285 14.0861 17.7627C13.2077 15.7361 13.7946 13.2752 15.6155 11.728C17.7942 9.87736 20.1191 8.18788 22.5607 6.68022C24.6008 5.42091 27.1805 5.58026 28.9122 6.9869C34.0092 11.1278 41.7487 9.22511 44.2337 3.22084C45.0781 1.18139 47.273 -0.152535 49.6803 0.0139844ZM51.4385 17.4221C35.2477 15.0872 20.1929 26.0288 17.8133 41.8612C15.4339 57.6935 26.6304 72.4217 42.821 74.7569C59.0118 77.0918 74.0669 66.1494 76.4463 50.3169C78.8254 34.4847 67.629 19.7573 51.4385 17.4221Z" fill="#F78F27"/>
</svg>
