<svg width="260" height="259" viewBox="0 0 260 259" fill="none" xmlns="http://www.w3.org/2000/svg">
<path d="M66.7339 11.6586C74.1013 7.84774 81.7599 4.58841 89.6116 1.92232C96.1727 -0.308354 103.227 1.82015 107.042 6.91656C118.271 21.9197 141.128 21.5808 152.288 6.24402C156.079 1.03325 163.123 -1.30411 169.694 0.7299C177.555 3.16394 185.226 6.19496 192.613 9.78655C198.785 12.7877 202.19 19.255 201.215 25.5786C198.342 44.1926 214.54 59.9648 233.279 56.8017C239.645 55.7282 246.23 58.9894 249.365 65.0514C253.118 72.3035 256.31 79.8477 258.903 87.5974C261.071 94.0706 258.833 101.088 253.64 104.933C238.354 116.25 238.406 138.894 253.745 149.757C258.956 153.448 261.226 160.398 259.09 166.935C256.533 174.755 253.376 182.394 249.657 189.76C246.549 195.913 239.979 199.37 233.609 198.483C214.857 195.873 198.731 212.124 201.686 230.652C202.688 236.946 199.313 243.512 193.155 246.695C185.787 250.506 178.128 253.765 170.276 256.431C163.715 258.662 156.661 256.534 152.846 251.437C141.616 236.434 118.76 236.773 107.6 252.11C103.808 257.32 96.7649 259.658 90.1939 257.624C82.3332 255.19 74.6624 252.159 67.2747 248.567C61.1035 245.566 57.6983 239.099 58.6735 232.776C61.5467 214.162 45.3479 198.389 26.6086 201.552C20.2433 202.625 13.6576 199.364 10.5233 193.302C6.7702 186.05 3.5777 178.502 0.986244 170.756C-1.18192 164.283 1.05592 157.267 6.24845 153.421C21.5346 142.104 21.4829 119.459 6.14413 108.596C0.932558 104.905 -1.33742 97.9554 0.799245 91.4185C3.35581 83.5988 6.51266 75.96 10.2316 68.5943C13.3392 62.441 19.9093 58.9849 26.2797 59.8712C45.0316 62.4819 61.1573 46.2306 58.2023 27.7024C57.1996 21.4086 60.5752 14.8412 66.7339 11.6586ZM97.2927 51.9959C54.0396 70.4035 33.5934 119.881 51.6244 162.506C69.6555 205.131 119.336 224.763 162.589 206.356C205.842 187.948 226.29 138.471 208.258 95.8458C190.227 53.2206 140.546 33.5882 97.2927 51.9959Z" fill="#FFAD5C"/>
</svg>
