<svg width="176" height="58" viewBox="0 0 176 58" fill="none" xmlns="http://www.w3.org/2000/svg">
<path d="M53.956 45.759C53.7261 45.9658 53.4334 46.1105 53.078 46.2139C52.7226 46.3173 52.3673 46.3793 51.991 46.3793C51.092 46.3793 50.3813 46.1312 49.8796 45.6556C49.3778 45.18 49.127 44.4977 49.127 43.5879V35.441H50.7576V37.3847H53.3289V38.708H50.7576V43.5258C50.7576 44.0014 50.883 44.3736 51.113 44.6424C51.3638 44.8905 51.6983 45.0353 52.1582 45.0353C52.6181 45.0353 53.078 44.8906 53.4334 44.6217L53.9351 45.7797L53.956 45.759Z" fill="#1E1E1E"/>
<path d="M65.4957 40.9205V46.2759H63.9487V45.0973C63.4052 45.9037 62.4017 46.3793 61.0011 46.3793C58.9733 46.3793 57.6772 45.3041 57.6772 43.774C57.6772 42.2438 58.6179 41.1686 61.2937 41.1686H63.8651V40.8585C63.8651 39.4938 63.0707 38.708 61.461 38.708C59.8513 38.708 59.3078 39.0802 58.6179 39.6592L57.9489 38.4599C58.8897 37.7155 60.2276 37.3226 61.67 37.3226C64.1368 37.3226 65.5166 38.5012 65.5166 40.9205H65.4957ZM63.8651 43.5672V42.3266H61.3565C59.7468 42.3266 59.2868 42.9469 59.2868 43.6913C59.2868 44.4356 60.0394 45.1387 61.2728 45.1387C62.5062 45.1387 63.4679 44.5804 63.8651 43.5672Z" fill="#1E1E1E"/>
<path d="M74.8611 37.302V38.8528C74.7357 38.8528 74.6103 38.8528 74.4848 38.8528C72.7288 38.8528 71.6627 39.9073 71.6627 41.851V46.2759H70.0321V37.3847H71.5999V38.8734C72.1853 37.8396 73.2933 37.302 74.8611 37.302Z" fill="#1E1E1E"/>
<path d="M87.4669 37.3847V45.056C87.4669 48.1989 85.8572 49.6257 82.8051 49.6257C79.7529 49.6257 79.5021 49.1708 78.5195 48.3023L79.293 47.0617C80.1292 47.7647 81.4253 48.2196 82.7424 48.2196C84.8538 48.2196 85.8363 47.2478 85.8363 45.2421V44.539C85.0628 45.4695 83.8921 45.9037 82.596 45.9037C80.0038 45.9037 78.0387 44.1668 78.0387 41.6028C78.0387 39.0389 80.0038 37.302 82.596 37.302C85.1883 37.302 85.1464 37.7982 85.9199 38.7701V37.4053H87.4669V37.3847ZM85.8781 41.6028C85.8781 39.8866 84.582 38.7287 82.7842 38.7287C80.9863 38.7287 79.6902 39.8866 79.6902 41.6028C79.6902 43.3191 80.9863 44.4977 82.7842 44.4977C84.582 44.4977 85.8781 43.2984 85.8781 41.6028Z" fill="#1E1E1E"/>
<path d="M92.505 34.6553C92.505 34.0763 92.9859 33.6007 93.613 33.6007C94.2402 33.6007 94.721 34.0556 94.721 34.6139C94.721 35.1722 94.2611 35.6891 93.613 35.6891C92.9649 35.6891 92.505 35.2342 92.505 34.6553ZM92.7977 37.3847H94.4283V46.2759H92.7977V37.3847Z" fill="#1E1E1E"/>
<path d="M115.208 41.8303C115.208 44.5597 113.285 46.3793 110.672 46.3793C108.058 46.3793 108.288 45.8831 107.536 44.9319V49.5223H105.905V37.3847H107.473V38.7907C108.205 37.7982 109.355 37.302 110.672 37.302C113.306 37.302 115.208 39.1216 115.208 41.8303ZM113.577 41.8303C113.577 39.9487 112.281 38.708 110.546 38.708C108.811 38.708 107.536 39.9487 107.536 41.8303C107.536 43.7119 108.832 44.9733 110.546 44.9733C112.26 44.9733 113.577 43.7326 113.577 41.8303Z" fill="#1E1E1E"/>
<path d="M124.114 37.302V38.8528C123.988 38.8528 123.863 38.8528 123.737 38.8528C121.981 38.8528 120.915 39.9073 120.915 41.851V46.2759H119.284V37.3847H120.852V38.8734C121.438 37.8396 122.546 37.302 124.114 37.302Z" fill="#1E1E1E"/>
<path d="M135.423 40.9205V46.2759H133.876V45.0973C133.333 45.9037 132.329 46.3793 130.929 46.3793C128.901 46.3793 127.605 45.3041 127.605 43.774C127.605 42.2438 128.545 41.1686 131.221 41.1686H133.793V40.8585C133.793 39.4938 132.998 38.708 131.389 38.708C129.779 38.708 129.235 39.0802 128.545 39.6592L127.876 38.4599C128.817 37.7155 130.155 37.3226 131.598 37.3226C134.064 37.3226 135.444 38.5012 135.444 40.9205H135.423ZM133.793 43.5672V42.3266H131.284C129.674 42.3266 129.214 42.9469 129.214 43.6913C129.214 44.4356 129.967 45.1387 131.2 45.1387C132.434 45.1387 133.395 44.5804 133.793 43.5672Z" fill="#1E1E1E"/>
<path d="M139.207 41.8303C139.207 39.1836 141.193 37.302 143.952 37.302C146.712 37.302 146.9 37.9636 147.611 39.2043L146.377 39.99C145.792 39.1216 144.914 38.708 143.932 38.708C142.176 38.708 140.838 39.928 140.838 41.8303C140.838 43.7326 142.155 44.9733 143.932 44.9733C145.709 44.9733 145.792 44.5804 146.377 43.6913L147.611 44.4563C146.9 45.697 145.562 46.3586 143.952 46.3586C141.193 46.3586 139.207 44.4563 139.207 41.8096V41.8303Z" fill="#1E1E1E"/>
<path d="M159.987 37.3847L155.638 47.1651C154.844 49.0467 153.799 49.6257 152.44 49.6257C151.081 49.6257 150.705 49.3362 150.14 48.7986L150.83 47.5993C151.269 48.0128 151.834 48.261 152.44 48.261C153.046 48.261 153.715 47.9095 154.154 46.8963L154.447 46.2759L150.475 37.4053H152.168L155.304 44.5184L158.398 37.4053H159.987V37.3847Z" fill="#1E1E1E"/>
<path d="M77.9342 29.4239H76.1154V24.7094C73.7532 24.4613 72.5825 23.262 72.5825 21.1736V12.7579H74.4012V21.1736C74.4012 22.5383 75.2583 23.2207 76.9935 23.2207C78.7286 23.2207 79.5857 22.5383 79.5857 21.1736V12.7579H81.4044V21.1736C81.4044 23.2827 80.2547 24.4613 77.9342 24.7094V29.4239Z" fill="#1E1E1E"/>
<path d="M87.4878 29.4239H85.6691V12.7373H86.4426L87.0906 14.4121C87.9268 13.0474 89.0766 12.3651 90.54 12.3651C93.0904 12.3651 94.3447 13.5644 94.3447 15.9629V29.4446H92.5259V15.9629C92.5259 15.3219 92.3796 14.805 92.1078 14.4535C91.8152 14.102 91.2925 13.9159 90.54 13.9159C89.7874 13.9159 89.0766 14.2054 88.4285 14.7843C87.7805 15.3633 87.4669 15.9216 87.4669 16.4799V29.4446L87.4878 29.4239Z" fill="#1E1E1E"/>
<path d="M101.118 29.4239H99.2992V12.7373H101.118V29.4239Z" fill="#1E1E1E"/>
<path d="M112.658 26.2189V24.8128H114.476V26.2189C114.476 27.3562 114.121 28.2453 113.41 28.8656C112.699 29.4859 111.633 29.7961 110.212 29.7961C108.79 29.7961 107.724 29.4859 106.992 28.8656C106.261 28.2453 105.905 27.3562 105.905 26.2189V15.9629C105.905 14.8257 106.261 13.9365 106.971 13.3162C107.682 12.6959 108.748 12.3857 110.17 12.3857C111.591 12.3857 112.658 12.6959 113.389 13.3162C114.121 13.9365 114.476 14.8257 114.476 15.9629V21.6078H107.724V26.2189C107.724 27.5836 108.539 28.266 110.191 28.266C111.842 28.266 112.658 27.5836 112.658 26.2189ZM107.724 15.9422V20.057H112.658V15.9422C112.658 14.5775 111.842 13.8952 110.191 13.8952C108.539 13.8952 107.724 14.5775 107.724 15.9422Z" fill="#1E1E1E"/>
<path d="M121.082 29.4239H119.264V12.7373H120.037L120.79 14.6396C121.333 13.1095 122.232 12.3651 123.445 12.3651C125.493 12.3651 126.539 13.4816 126.539 15.6941V17.369H124.803V15.5907C124.803 14.4535 124.323 13.8952 123.382 13.8952C122.441 13.8952 122.295 14.226 121.814 14.867C121.333 15.508 121.103 16.4592 121.103 17.6791V29.4032L121.082 29.4239Z" fill="#1E1E1E"/>
<path d="M137.911 26.2189C137.911 28.6175 136.448 29.8168 133.521 29.8168C130.594 29.8168 129.131 28.6175 129.131 26.2189V24.0478H130.95V26.3223C130.95 26.9426 131.159 27.4182 131.598 27.7697C132.037 28.1212 132.664 28.2866 133.521 28.2866C134.378 28.2866 135.005 28.1212 135.444 27.7697C135.883 27.4182 136.092 26.9633 136.092 26.3636C136.092 25.764 136.029 25.3091 135.904 24.9576C135.779 24.6061 135.507 24.2339 135.11 23.841L130.552 19.4367C130.009 18.8991 129.653 18.3822 129.444 17.8859C129.235 17.3897 129.152 16.7487 129.152 15.9836C129.152 14.8463 129.507 13.9572 130.239 13.3369C130.97 12.7166 132.037 12.4064 133.5 12.4064C136.28 12.4064 137.681 13.6057 137.681 16.0043V18.1754H135.862V15.9009C135.862 15.2806 135.653 14.805 135.256 14.4535C134.859 14.102 134.232 13.9365 133.437 13.9365C132.643 13.9365 132.016 14.102 131.618 14.4535C131.221 14.805 131.012 15.2599 131.012 15.8595C131.012 16.4592 131.075 16.9348 131.2 17.2656C131.326 17.6171 131.598 17.9686 131.995 18.3408L136.636 22.7451C137.137 23.2827 137.493 23.8203 137.681 24.3166C137.869 24.8128 137.974 25.4538 137.974 26.2189H137.911Z" fill="#1E1E1E"/>
<path d="M144.412 29.4239H142.594V12.7373H144.412V19.8296L148.928 12.7373H150.956L146.357 19.9123L151.269 29.4032H149.262L145.27 21.6285L144.412 22.9932V29.4032V29.4239Z" fill="#1E1E1E"/>
<path d="M156.182 29.4239H154.363V12.7373H156.182V29.4239Z" fill="#1E1E1E"/>
<path d="M167.742 26.2189V24.8128H169.561V26.2189C169.561 27.3562 169.206 28.2453 168.495 28.8656C167.784 29.4859 166.718 29.7961 165.297 29.7961C163.875 29.7961 162.809 29.4859 162.077 28.8656C161.346 28.2453 160.99 27.3562 160.99 26.2189V15.9629C160.99 14.8257 161.346 13.9365 162.056 13.3162C162.767 12.6959 163.833 12.3857 165.255 12.3857C166.676 12.3857 167.742 12.6959 168.474 13.3162C169.206 13.9365 169.561 14.8257 169.561 15.9629V21.6078H162.809V26.2189C162.809 27.5836 163.624 28.266 165.276 28.266C166.927 28.266 167.742 27.5836 167.742 26.2189ZM162.809 15.9422V20.057H167.742V15.9422C167.742 14.5775 166.927 13.8952 165.276 13.8952C163.624 13.8952 162.809 14.5775 162.809 15.9422Z" fill="#1E1E1E"/>
<path d="M120.852 12.7373H119.284V15.0118H120.852V12.7373Z" fill="#1E1E1E"/>
<path d="M87.0906 12.7373H85.69V15.0118H87.0906V12.7373Z" fill="#1E1E1E"/>
<path d="M43.8589 29.4239H42.0401V12.7373H43.8589V29.4239Z" fill="#F78F27"/>
<path d="M50.8621 29.4239H49.0434V12.7373H49.8168L50.4649 14.4121C51.3011 13.0474 52.4509 12.3651 53.9142 12.3651C56.4647 12.3651 57.719 13.5644 57.719 15.9629V29.4446H55.9002V15.9629C55.9002 15.3219 55.7539 14.805 55.4821 14.4535C55.1894 14.102 54.6668 13.9159 53.9142 13.9159C53.1617 13.9159 52.4509 14.2054 51.8028 14.7843C51.1548 15.3633 50.8412 15.9216 50.8412 16.4799V29.4446L50.8621 29.4239Z" fill="#F78F27"/>
<path d="M61.3774 14.2881V12.7579H69.8648V14.2881L62.8825 27.8938H69.7394V29.4239H61.0011V27.8938L67.9834 14.2881H61.3983H61.3774ZM68.2969 21.6285H62.5271V20.1604H68.2969V21.6285Z" fill="#F78F27"/>
<path d="M50.444 12.7373H49.0434V15.8182H50.444V12.7373Z" fill="#F78F27"/>
<path d="M29.5598 27.8524C29.7479 28.8863 29.7689 29.9615 29.6016 31.0367C28.8699 36.8264 23.79 41.4788 17.2676 42.4299L17.7484 44.3323C18.9609 44.477 20.1734 44.477 21.3441 44.3323L21.9922 41.7269C22.5148 41.6235 23.0374 41.4788 23.5391 41.3134L25.4206 43.2364C26.5286 42.7608 27.5738 42.1611 28.5355 41.4581L27.7829 38.8941C28.1801 38.5426 28.5564 38.1704 28.9117 37.7775L31.504 38.5219C32.2148 37.5914 32.821 36.5576 33.3018 35.441L31.3576 33.58C31.4831 33.2078 31.5876 32.8356 31.6921 32.4428C31.7339 32.3187 31.7548 32.174 31.7757 32.0499L34.4098 31.4089C34.5561 30.2096 34.5561 29.0103 34.4098 27.8524L31.7757 27.1907C31.6712 26.6738 31.5249 26.1569 31.3576 25.6606L33.3018 23.7996C32.821 22.7037 32.2148 21.6699 31.504 20.7187L28.9117 21.4631C28.5564 21.0702 28.1801 20.698 27.7829 20.3465L28.5355 17.7825C27.5947 17.0795 26.5495 16.4799 25.4206 16.0043L23.5391 17.9273C23.1628 17.8032 22.7866 17.6998 22.3894 17.5964C22.2639 17.5551 22.1176 17.5344 21.9922 17.5137L21.3441 14.9084C20.1316 14.7636 18.9191 14.7636 17.7484 14.9084L17.2676 16.8314C23.6437 17.7825 28.6609 22.2695 29.5598 27.8731V27.8524Z" fill="#1E1E1E"/>
<path d="M7.29588 27.1701L4.66184 27.8111C4.5155 29.0103 4.5155 30.2096 4.66184 31.3676L7.29588 32.0292C7.40041 32.5462 7.54674 33.0631 7.71398 33.5594L5.76981 35.4203C6.25063 36.5162 6.85687 37.5501 7.56765 38.5012L10.1599 37.7569C10.5153 38.1497 10.8916 38.5219 11.2888 38.8734L10.5362 41.4374C11.4769 42.1405 12.5222 42.7401 13.651 43.2157L15.5325 41.2927C15.5534 41.2927 15.5743 41.2927 15.6161 41.3134C18.3129 41.1686 20.8215 40.3415 22.8702 39.0595C21.1141 39.6592 19.17 39.8039 17.2258 39.349C11.7696 38.0877 8.38294 32.6702 9.65816 27.2734C10.9334 21.8766 16.4105 18.5269 21.8667 19.7882C22.1803 19.8503 22.473 19.9537 22.7656 20.0364C20.717 18.775 18.2292 17.9686 15.5534 17.8446L13.6719 15.9216C12.564 16.3971 11.5187 16.9968 10.5571 17.6998L11.3097 20.2638C10.9125 20.6153 10.5362 20.9875 10.1808 21.3804L7.58855 20.636C6.87778 21.5665 6.27153 22.6004 5.79071 23.7169L7.73489 25.5779C7.60946 25.9501 7.50493 26.3223 7.40041 26.7152C7.3586 26.8392 7.33769 26.984 7.31678 27.108L7.29588 27.1701Z" fill="url(#paint0_linear_679_1006)"/>
<defs>
<linearGradient id="paint0_linear_679_1006" x1="4.55731" y1="29.61" x2="22.8911" y2="29.61" gradientUnits="userSpaceOnUse">
<stop stop-color="#F78F26"/>
<stop offset="0.6" stop-color="#F68E33"/>
<stop offset="0.7" stop-color="#F68F2E" stop-opacity="0.8"/>
<stop offset="0.8" stop-color="#F79225" stop-opacity="0.5"/>
<stop offset="0.9" stop-color="#F7941D" stop-opacity="0.2"/>
<stop offset="1" stop-color="#F7941D" stop-opacity="0"/>
</linearGradient>
</defs>
</svg>
